 http://en.wikipedia.org/wiki/Ek_Tha_Tiger
 
http://www.imdb.com/title/tt2016894/


Format                                   : Matroska
Format version                           : Version 2
File size                                : 891 MiB
Duration                                 : 2h 13mn
Overall bit rate                         : 935 Kbps


Video
ID                                       : 1
Format                                   : AVC
Format/Info                              : Advanced Video Codec
Format profile                           : High@L4.1
Format settings, CABAC                   : Yes
Format settings, ReFrames                : 4 frames
Muxing mode                              : Header stripping
Codec ID                                 : V_MPEG4/ISO/AVC
Duration                                 : 2h 13mn
Bit rate                                 : 870 Kbps
Width                                    : 1 280 pixels
Height                                   : 544 pixels
Display aspect ratio                     : 2.35:1
Original display aspect ratio            : 2.35:1
Frame rate                               : 23.976 fps
Color space                              : YUV
Chroma subsampling                       : 4:2:0
Bit depth                                : 8 bits
Scan type                                : Progressive
Bits/(Pixel*Frame)                       : 0.052
Stream size                              : 812 MiB (91%)

Audio
ID                                       : 2
Format                                   : AC-3
Bit rate mode                            : Constant
Bit rate                                 : 64.0 Kbps
Channel(s)                               : 2 channels
Channel positions                        : Front: L R
Sampling rate                            : 32.0 KHz
Bit depth                                : 16 bits
Compression mode                         : Lossy
Stream size                              : 61.0 MiB (7%)

 
http://www.shotpix.com/images/89426294704441628016.png
 
http://www.shotpix.com/images/56044710250130749225.png
 
http://www.shotpix.com/images/12619748933678806822.png
 
http://www.shotpix.com/images/85523882344425757812.png
 
http://www.shotpix.com/images/66528309883110606917.png
 
http://www.shotpix.com/images/45468247579188085218.png
 
http://www.shotpix.com/images/99653331399573249006.png
 
http://www.shotpix.com/images/00689564799607881704.png
 
http://www.shotpix.com/images/23652920332020013664.png
 
http://www.shotpix.com/images/90063755422599257905.png

                                 
                                Check The Sample First